<svg width="58" height="90" fill="none" xmlns="http://www.w3.org/2000/svg"><path fill-rule="evenodd" clip-rule="evenodd" d="M0 0h58v2.27L2.504 2.065l-.209 87.73L0 90V0Zm4.173 3.716H58V5.78H5.842L6.05 90H4.173V3.716ZM7.51 7.43H58v2.477H10.014V90H7.511V7.431Zm11.683 10.734H58v2.27l-36.302-.206V43.76h28.374v14.037H19.194V55.32h28.792v-8.67H19.194V18.165Zm4.173 3.716H58v2.064H25.036v16.514h29.209v21.055h-35.05v-2.065H51.74V42.11H23.367V21.88Zm3.296 3.715H58v2.477H29.209v8.67H58V65.23H19.194v-2.064h36.72V38.807l-29-.206-.25-13.005Z" fill="#fff"/></svg>